Coordinates
version=1
nRows=15
nColumns=34
inDegrees=yes

Units are S.I. units (second, meters, Newtons, ...)
If the header above contains a line with 'inDegrees', this indicates whether rotational values are in degrees (yes) or radians (no).

endheader
time	pelvis_tilt	pelvis_list	pelvis_rotation	pelvis_tx	pelvis_ty	pelvis_tz	hip_flexion_r	hip_adduction_r	hip_rotation_r	knee_angle_r	ankle_angle_r	subtalar_angle_r	mtp_angle_r	hip_flexion_l	hip_adduction_l	hip_rotation_l	knee_angle_l	ankle_angle_l	subtalar_angle_l	mtp_angle_l	lumbar_extension	lumbar_bending	lumbar_rotation	arm_flex_r	arm_add_r	arm_rot_r	elbow_flex_r	pro_sup_r	arm_flex_l	arm_add_l	arm_rot_l	elbow_flex_l	pro_sup_l
      2.43333330	     -4.65049520	     -0.01404219	     22.53337157	      0.35196890	      0.82103548	     -0.13774064	     52.74506461	     -0.75463372	     -3.26916836	     80.55829847	    -43.65188903	    -35.00000000	      0.00000000	     39.74432106	      4.66432574	     -0.64596756	     75.61360820	     16.91064083	    -32.83608576	      0.00000000	    -23.08782725	      1.23734893	      4.92574393	     -6.60825102	     -6.64012636	    -14.32502777	     33.75262729	     90.50739946	     -5.22911406	     -7.27696060	      5.89057065	     27.87741829	     92.77289324
      2.45000000	     -3.90284098	      0.12532761	     22.57691283	      0.35369495	      0.81245181	     -0.13806982	     51.13109505	     -0.03897079	     -2.41728271	     82.53963675	    -33.74884089	    -35.00000000	      0.00000000	     40.43940451	      4.34162043	     -0.94080121	     78.91367571	     19.38415686	    -30.84047036	      0.00000000	    -25.02121709	      1.45739105	      5.09681374	     -6.18255730	     -6.70460793	    -14.48818503	     33.72001411	     90.27462376	     -4.49065834	     -6.93747868	      6.02859633	     27.36369097	     93.49206473
      2.46666670	     -3.30227202	      0.46728083	     23.08018404	      0.35098348	      0.80434692	     -0.13899952	     50.31684253	      0.01198146	     -1.65572291	     84.81821013	    -29.94613546	    -35.00000000	      0.00000000	     40.95896999	      4.72887014	     -0.85130122	     81.34230206	     20.85635726	    -29.83230139	      0.00000000	    -26.79187504	      1.58569885	      5.00204627	     -5.53018667	     -6.58813369	    -14.67287632	     33.63885080	     90.16060669	     -3.45820729	     -6.68460785	      6.18095774	     27.03581241	     93.79217509
      2.48333330	     -3.07873637	      0.91456696	     22.58971338	      0.35151420	      0.79197266	     -0.13797152	     51.94028983	      0.15424738	     -0.95454099	     87.12969500	    -35.83531553	    -35.00000000	      0.00000000	     41.79995974	      5.02900616	     -1.16097649	     83.94691459	     22.57150209	    -28.47787046	      0.00000000	    -28.28662585	      1.17634002	      4.98628240	     -4.18495182	     -6.60847620	    -14.79729844	     33.58030742	     90.08511833	     -2.35534874	     -6.28155626	      6.29929577	     26.61810217	     94.02899162
      2.50000000	     -2.92124175	      1.27279926	     22.56653439	      0.36054413	      0.77365209	     -0.14378453	     53.30848282	      0.19823982	     -0.48242547	     90.91609079	    -37.75094600	    -35.00000000	      0.00000000	     42.73138186	      5.73325511	     -0.89292013	     87.53808902	     26.09791937	    -26.41620129	      0.00000000	    -28.43508342	      0.97253231	      4.80058688	     -2.96837951	     -6.53701938	    -15.13116184	     32.38841160	     89.96689875	     -1.08653217	     -5.82785838	      6.56047164	     24.97604599	     94.43101771
      2.51666670	     -2.49946364	      1.78267147	     22.24055833	      0.35858828	      0.77487621	     -0.14219975	     53.57885544	      1.01628421	      0.67158463	     92.32070604	    -37.07073407	    -35.00000000	      0.00000000	     43.11005815	      6.38133709	     -0.63181792	     89.54595267	     25.70587500	    -26.76776969	      0.00000000	    -29.70241004	      0.52051154	      4.80271142	     -1.56757155	     -6.55854938	    -15.21359842	     32.20989525	     89.95795208	      0.32185153	     -5.45476604	      6.56479560	     24.42028243	     94.57097731
      2.53333330	     -1.79630601	      1.73152419	     22.38508485	      0.36005044	      0.76762057	     -0.14074769	     50.80030225	      2.46933394	      1.41650754	     92.41925012	    -19.08386911	    -35.00000000	      0.00000000	     43.24762478	      6.55596463	     -0.10325780	     91.26200106	     25.29721855	    -28.27657289	      0.00000000	    -30.62725307	      0.78913915	      4.76443628	     -0.01129817	     -6.52480244	    -15.27670955	     31.86096602	     89.99509480	      2.14375309	     -5.22031396	      6.57857094	     23.72185104	     94.73246793
      2.55000000	     -1.29530698	      1.45834075	     22.18046107	      0.36085969	      0.76785451	     -0.14229311	     48.01647023	      4.18012262	      2.48304627	     91.14075930	     -5.78712186	    -35.00000000	      0.00000000	     43.47455588	      6.43936266	     -0.09142032	     91.82665566	     23.61926014	    -30.90002621	      0.00000000	    -31.59527113	      1.07151348	      5.17222308	      1.71915760	     -6.63426383	    -15.30654387	     31.72364958	     90.11089967	      4.16851253	     -4.76922187	      6.59383999	     23.48665873	     94.87639143
      2.56666670	     -0.83324999	      1.51833759	     22.26059861	      0.36497190	      0.77080389	     -0.14356395	     46.09401334	      5.08486894	      3.20407987	     90.64517578	      1.42126140	    -35.00000000	      0.00000000	     42.42291842	      6.74694372	     -0.04412452	     90.86139447	     22.80262525	    -32.95694036	      0.00000000	    -32.21055153	      1.12164049	      5.17051859	      3.55430977	     -6.64524437	    -15.27610338	     31.50406875	     90.30121346	      6.23764627	     -4.54856585	      6.69909167	     23.46934658	     94.99204790
      2.58333330	     -0.62754990	      1.54022605	     22.72394927	      0.37266872	      0.77602429	     -0.14570267	     42.63196283	      5.94556270	      3.86598903	     88.75285441	     10.56338927	    -35.00000000	      0.00000000	     40.83546416	      6.97864777	      0.13048780	     88.71352601	     22.26902473	    -35.00000000	      0.00000000	    -32.27089200	      1.18912448	      4.93724840	      5.24349746	     -6.44350411	    -15.28648168	     31.20298984	     90.50205438	      8.44801038	     -4.50538064	      6.93185987	     23.63863139	     95.09000363
      2.60000000	     -0.73803924	      1.81699608	     22.61924391	      0.37517284	      0.77965853	     -0.14590429	     42.33374612	      5.79085260	      4.06721725	     87.92219409	     10.89918650	    -35.00000000	      0.00000000	     39.38365433	      7.31547809	     -0.11949360	     86.67087388	     22.36415629	    -35.00000000	      0.00000000	    -31.92283540	      0.75884342	      4.68660380	      7.03458159	     -6.32995187	    -15.18671505	     31.18490620	     90.66528394	     10.47856164	     -4.45029223	      7.08297342	     23.93683237	     95.12619258
      2.61666670	     -0.90251080	      1.82715277	     22.64393679	      0.37625109	      0.78646805	     -0.14446747	     42.39864128	      5.47258054	      3.59446999	     87.05226821	     10.10064169	    -35.00000000	      0.00000000	     37.94512578	      7.56408465	      0.14431872	     84.42986637	     23.10108625	    -35.00000000	      0.00000000	    -30.87957452	      0.53744823	      4.36357859	      9.09235709	     -6.19290871	    -14.56745001	     30.42787254	     91.26528097	     12.47399523	     -4.49572208	      7.72322596	     23.91030834	     95.15159292
      2.63333330	     -1.57237378	      1.39929757	     22.58165962	      0.37757966	      0.79272478	     -0.14352581	     41.83257380	      5.70334581	      3.45804643	     84.86615272	     11.27115510	    -35.00000000	      0.00000000	     37.23738149	      7.46066129	      0.54199549	     82.41921608	     24.41117687	    -35.00000000	      0.00000000	    -28.89233745	      0.41522394	      4.47908125	     10.41346270	     -5.96913953	    -14.34500422	     30.89681095	     91.36127094	     14.12810668	     -4.56120169	      7.73825190	     24.54241319	     95.11734422
      2.65000000	     -2.59889881	      0.84670898	     21.97525445	      0.37885975	      0.80540066	     -0.14160866	     42.06089711	      5.79583418	      3.17141996	     82.15083349	     10.01888355	    -35.00000000	      0.00000000	     36.69492425	      6.77032221	      0.51227775	     79.44104380	     23.06626497	    -35.00000000	      0.00000000	    -26.63220467	      0.17639473	      4.84432794	     11.73239209	     -5.96726169	    -13.55922303	     31.36128544	     91.64389503	     15.44005894	     -4.64853861	      7.88357811	     25.54081170	     94.97223333
      2.66666670	     -3.73657578	     -0.15401222	     21.52517085	      0.39071487	      0.82179709	     -0.14412105	     40.26668719	      6.45309992	      3.47329024	     76.78065406	      9.97659624	    -35.00000000	      0.00000000	     35.66050239	      5.63335572	      0.55036814	     75.59203339	     21.18176090	    -35.00000000	      0.00000000	    -23.38900181	      0.31902686	      5.21594704	     12.39254204	     -5.71658855	    -13.09770003	     31.80836879	     91.75708431	     16.04401508	     -4.75947325	      7.89086659	     26.26853083	     94.86719892
